ffmpeg started on 2025-06-04 at 19:43:32
Report written to "D:\Convert\FFMetrics\reports\psnr_report-6.txt"
Log level: 32
Command line:
ffmpeg -hide_banner -nostdin -i "G:\\\xc0\xed\xe8\xec\xe5\\\xce\xed\xe3\xee\xe8\xed\xe3\xe8\\!_36_\xce\xf1\xe5\xed\xfc_2024\\DreamCast\\\xc2\xfb \xef\xf0\xe0\xe2\xe4\xe0 \xe6\xe5\xed\xe8\xf2\xe5\xf1\xfc\\[DC] Kekkon Surutte Hontou Desuka - 11_Telegram_HEVC.mkv" -i "G:\\\xc0\xed\xe8\xec\xe5\\\xce\xed\xe3\xee\xe8\xed\xe3\xe8\\!_36_\xce\xf1\xe5\xed\xfc_2024\\DreamCast\\\xc2\xfb \xef\xf0\xe0\xe2\xe4\xe0 \xe6\xe5\xed\xe8\xf2\xe5\xf1\xfc\\[DC] Kekkon Surutte Hontou Desuka - 11_Telegram.mp4" -lavfi "[0:v]settb=AVTB,setpts=PTS-STARTPTS,format=pix_fmts=yuv420p10,fps=24000/1001,scale=1920:1080:flags=bicubic[main];[1:v]settb=AVTB,setpts=PTS-STARTPTS,format=pix_fmts=yuv420p,fps=24000/1001,scale=1920:1080:flags=bicubic[ref];[main][ref]psnr=eof_action=endall:stats_file='D\\:/Convert/FFMetrics/logs/psnr_logfile-6.txt'" -f null -
Input #0, matroska,webm, from 'G:\Аниме\Онгоинги\!_36_Осень_2024\DreamCast\Вы правда женитесь\[DC] Kekkon Surutte Hontou Desuka - 11_Telegram_HEVC.mkv':
  Metadata:
    COMPATIBLE_BRANDS: isomiso2avc1mp41
    MAJOR_BRAND     : isom
    MINOR_VERSION   : 512
    ENCODER         : Lavf61.7.100
  Duration: 00:23:47.67, start: -0.021000, bitrate: 1150 kb/s
  Stream #0:0: Video: hevc (Main 10), yuv420p10le(tv, bt709, progressive), 1920x1080 [SAR 1:1 DAR 16:9], 23.98 fps, 23.98 tbr, 1k tbn (default)
      Metadata:
        HANDLER_NAME    : VideoHandler
        VENDOR_ID       : [0][0][0][0]
        ENCODER         : Lavc61.19.100 libx265
        BPS             : 954175
        DURATION        : 00:23:46.549708333
        NUMBER_OF_FRAMES: 34203
        NUMBER_OF_BYTES : 170147316
        _STATISTICS_WRITING_APP: mkvpropedit v66.0.0 ('Josie') 64-bit
        _STATISTICS_WRITING_DATE_UTC: 2025-05-30 09:09:07
        _STATISTICS_TAGS: BPS DURATION NUMBER_OF_FRAMES NUMBER_OF_BYTES
  Stream #0:1: Audio: aac (LC), 48000 Hz, stereo, fltp (default)
      Metadata:
        HANDLER_NAME    : SoundHandler
        VENDOR_ID       : [0][0][0][0]
        ENCODER         : Lavc61.19.100 aac
        BPS             : 193332
        DURATION        : 00:23:47.669000000
        NUMBER_OF_FRAMES: 66923
        NUMBER_OF_BYTES : 34501791
        _STATISTICS_WRITING_APP: mkvpropedit v66.0.0 ('Josie') 64-bit
        _STATISTICS_WRITING_DATE_UTC: 2025-05-30 09:09:07
        _STATISTICS_TAGS: BPS DURATION NUMBER_OF_FRAMES NUMBER_OF_BYTES
Input #1, mov,mp4,m4a,3gp,3g2,mj2, from 'G:\Аниме\Онгоинги\!_36_Осень_2024\DreamCast\Вы правда женитесь\[DC] Kekkon Surutte Hontou Desuka - 11_Telegram.mp4':
  Metadata:
    major_brand     : isom
    minor_version   : 512
    compatible_brands: isomiso2avc1mp41
    encoder         : Lavf61.1.100
  Duration: 00:23:47.65, start: 0.000000, bitrate: 3423 kb/s
  Stream #1:0[0x1](und): Video: h264 (High) (avc1 / 0x31637661), yuv420p(tv, bt709, progressive), 1920x1080 [SAR 1:1 DAR 16:9], 3278 kb/s, 23.98 fps, 23.98 tbr, 24k tbn (default)
      Metadata:
        handler_name    : VideoHandler
        vendor_id       : [0][0][0][0]
        encoder         : Lavc61.3.100 h264_qsv
  Stream #1:1[0x2](und): Audio: aac (HE-AACv2) (mp4a / 0x6134706D), 48000 Hz, stereo, fltp, 144 kb/s (default)
      Metadata:
        handler_name    : SoundHandler
        vendor_id       : [0][0][0][0]
Stream mapping:
  Stream #0:0 (hevc) -> settb:default
  Stream #1:0 (h264) -> settb:default
  psnr:default -> Stream #0:0 (wrapped_avframe)
  Stream #0:1 -> #0:1 (aac (native) -> pcm_s16le (native))
Output #0, null, to 'pipe:':
  Metadata:
    COMPATIBLE_BRANDS: isomiso2avc1mp41
    MAJOR_BRAND     : isom
    MINOR_VERSION   : 512
    encoder         : Lavf61.7.100
  Stream #0:0: Video: wrapped_avframe, yuv420p10le(tv, bt709, progressive), 1920x1080 [SAR 1:1 DAR 16:9], q=2-31, 200 kb/s, 23.98 fps, 23.98 tbn
      Metadata:
        encoder         : Lavc61.19.100 wrapped_avframe
  Stream #0:1: Audio: pcm_s16le, 48000 Hz, stereo, s16, 1536 kb/s (default)
      Metadata:
        HANDLER_NAME    : SoundHandler
        VENDOR_ID       : [0][0][0][0]
        _STATISTICS_TAGS: BPS DURATION NUMBER_OF_FRAMES NUMBER_OF_BYTES
        BPS             : 193332
        DURATION        : 00:23:47.669000000
        NUMBER_OF_FRAMES: 66923
        NUMBER_OF_BYTES : 34501791
        _STATISTICS_WRITING_APP: mkvpropedit v66.0.0 ('Josie') 64-bit
        _STATISTICS_WRITING_DATE_UTC: 2025-05-30 09:09:07
        encoder         : Lavc61.19.100 pcm_s16le
frame=  168 fps=0.0 q=-0.0 size=N/A time=00:00:07.00 bitrate=N/A speed=13.5x    frame=  430 fps=419 q=-0.0 size=N/A time=00:00:17.93 bitrate=N/A speed=17.5x    frame=  698 fps=451 q=-0.0 size=N/A time=00:00:29.11 bitrate=N/A speed=18.8x    frame=  958 fps=462 q=-0.0 size=N/A time=00:00:39.95 bitrate=N/A speed=19.3x    frame= 1178 fps=457 q=-0.0 size=N/A time=00:00:49.13 bitrate=N/A speed=19.1x    frame= 1397 fps=451 q=-0.0 size=N/A time=00:00:58.26 bitrate=N/A speed=18.8x    frame= 1642 fps=454 q=-0.0 size=N/A time=00:01:08.48 bitrate=N/A speed=18.9x    frame= 1855 fps=450 q=-0.0 size=N/A time=00:01:17.36 bitrate=N/A speed=18.8x    frame= 2096 fps=451 q=-0.0 size=N/A time=00:01:27.42 bitrate=N/A speed=18.8x    frame= 2260 fps=438 q=-0.0 size=N/A time=00:01:34.26 bitrate=N/A speed=18.3x    frame= 2476 fps=436 q=-0.0 size=N/A time=00:01:43.26 bitrate=N/A speed=18.2x    frame= 2673 fps=432 q=-0.0 size=N/A time=00:01:51.48 bitrate=N/A speed=  18x    frame= 2896 fps=432 q=-0.0 size=N/A time=00:02:00.78 bitrate=N/A speed=  18x    frame= 3137 fps=434 q=-0.0 size=N/A time=00:02:10.83 bitrate=N/A speed=18.1x    frame= 3369 fps=434 q=-0.0 size=N/A time=00:02:20.51 bitrate=N/A speed=18.1x    frame= 3605 fps=436 q=-0.0 size=N/A time=00:02:30.35 bitrate=N/A speed=18.2x    frame= 3884 fps=442 q=-0.0 size=N/A time=00:02:41.99 bitrate=N/A speed=18.4x    frame= 4149 fps=446 q=-0.0 size=N/A time=00:02:53.04 bitrate=N/A speed=18.6x    frame= 4394 fps=448 q=-0.0 size=N/A time=00:03:03.26 bitrate=N/A speed=18.7x    frame= 4614 fps=447 q=-0.0 size=N/A time=00:03:12.44 bitrate=N/A speed=18.6x    frame= 4839 fps=446 q=-0.0 size=N/A time=00:03:21.82 bitrate=N/A speed=18.6x    frame= 5094 fps=448 q=-0.0 size=N/A time=00:03:32.46 bitrate=N/A speed=18.7x    frame= 5345 fps=450 q=-0.0 size=N/A time=00:03:42.93 bitrate=N/A speed=18.8x    frame= 5541 fps=447 q=-0.0 size=N/A time=00:03:51.10 bitrate=N/A speed=18.7x    frame= 5820 fps=451 q=-0.0 size=N/A time=00:04:02.74 bitrate=N/A speed=18.8x    frame= 6096 fps=454 q=-0.0 size=N/A time=00:04:14.25 bitrate=N/A speed=18.9x    frame= 6369 fps=457 q=-0.0 size=N/A time=00:04:25.64 bitrate=N/A speed=19.1x    frame= 6614 fps=458 q=-0.0 size=N/A time=00:04:35.85 bitrate=N/A speed=19.1x    frame= 6812 fps=455 q=-0.0 size=N/A time=00:04:44.11 bitrate=N/A speed=  19x    frame= 7001 fps=452 q=-0.0 size=N/A time=00:04:52.00 bitrate=N/A speed=18.9x    frame= 7188 fps=449 q=-0.0 size=N/A time=00:04:59.79 bitrate=N/A speed=18.7x    frame= 7423 fps=449 q=-0.0 size=N/A time=00:05:09.60 bitrate=N/A speed=18.7x    frame= 7655 fps=449 q=-0.0 size=N/A time=00:05:19.27 bitrate=N/A speed=18.7x    frame= 7823 fps=446 q=-0.0 size=N/A time=00:05:26.28 bitrate=N/A speed=18.6x    frame= 8027 fps=444 q=-0.0 size=N/A time=00:05:34.79 bitrate=N/A speed=18.5x    frame= 8275 fps=445 q=-0.0 size=N/A time=00:05:45.13 bitrate=N/A speed=18.6x    frame= 8491 fps=445 q=-0.0 size=N/A time=00:05:54.14 bitrate=N/A speed=18.5x    frame= 8718 fps=445 q=-0.0 size=N/A time=00:06:03.61 bitrate=N/A speed=18.5x    frame= 8916 fps=443 q=-0.0 size=N/A time=00:06:11.87 bitrate=N/A speed=18.5x    frame= 9149 fps=443 q=-0.0 size=N/A time=00:06:21.58 bitrate=N/A speed=18.5x    frame= 9409 fps=445 q=-0.0 size=N/A time=00:06:32.43 bitrate=N/A speed=18.5x    frame= 9676 fps=446 q=-0.0 size=N/A time=00:06:43.56 bitrate=N/A speed=18.6x    frame= 9910 fps=447 q=-0.0 size=N/A time=00:06:53.32 bitrate=N/A speed=18.6x    frame=10158 fps=447 q=-0.0 size=N/A time=00:07:03.67 bitrate=N/A speed=18.7x    frame=10414 fps=448 q=-0.0 size=N/A time=00:07:14.35 bitrate=N/A speed=18.7x    frame=10656 fps=449 q=-0.0 size=N/A time=00:07:24.44 bitrate=N/A speed=18.7x    frame=10889 fps=449 q=-0.0 size=N/A time=00:07:34.16 bitrate=N/A speed=18.7x    frame=11134 fps=449 q=-0.0 size=N/A time=00:07:44.38 bitrate=N/A speed=18.7x    frame=11375 fps=450 q=-0.0 size=N/A time=00:07:54.43 bitrate=N/A speed=18.8x    frame=11640 fps=451 q=-0.0 size=N/A time=00:08:05.48 bitrate=N/A speed=18.8x    frame=11895 fps=452 q=-0.0 size=N/A time=00:08:16.12 bitrate=N/A speed=18.9x    frame=12167 fps=453 q=-0.0 size=N/A time=00:08:27.46 bitrate=N/A speed=18.9x    frame=12436 fps=455 q=-0.0 size=N/A time=00:08:38.68 bitrate=N/A speed=  19x    frame=12685 fps=455 q=-0.0 size=N/A time=00:08:49.07 bitrate=N/A speed=  19x    frame=12947 fps=456 q=-0.0 size=N/A time=00:08:59.99 bitrate=N/A speed=  19x    frame=13182 fps=456 q=-0.0 size=N/A time=00:09:09.79 bitrate=N/A speed=  19x    frame=13418 fps=456 q=-0.0 size=N/A time=00:09:19.64 bitrate=N/A speed=  19x    frame=13669 fps=457 q=-0.0 size=N/A time=00:09:30.11 bitrate=N/A speed=  19x    frame=13916 fps=457 q=-0.0 size=N/A time=00:09:40.41 bitrate=N/A speed=19.1x    frame=14175 fps=458 q=-0.0 size=N/A time=00:09:51.21 bitrate=N/A speed=19.1x    frame=14391 fps=457 q=-0.0 size=N/A time=00:10:00.22 bitrate=N/A speed=19.1x    frame=14660 fps=458 q=-0.0 size=N/A time=00:10:11.44 bitrate=N/A speed=19.1x    frame=14912 fps=459 q=-0.0 size=N/A time=00:10:21.95 bitrate=N/A speed=19.1x    frame=15176 fps=460 q=-0.0 size=N/A time=00:10:32.96 bitrate=N/A speed=19.2x    frame=15437 fps=460 q=-0.0 size=N/A time=00:10:43.85 bitrate=N/A speed=19.2x    frame=15659 fps=460 q=-0.0 size=N/A time=00:10:53.11 bitrate=N/A speed=19.2x    frame=15900 fps=460 q=-0.0 size=N/A time=00:11:03.16 bitrate=N/A speed=19.2x    frame=16175 fps=461 q=-0.0 size=N/A time=00:11:14.63 bitrate=N/A speed=19.2x    frame=16439 fps=462 q=-0.0 size=N/A time=00:11:25.64 bitrate=N/A speed=19.3x    frame=16689 fps=462 q=-0.0 size=N/A time=00:11:36.07 bitrate=N/A speed=19.3x    frame=16951 fps=463 q=-0.0 size=N/A time=00:11:46.99 bitrate=N/A speed=19.3x    frame=17201 fps=463 q=-0.0 size=N/A time=00:11:57.42 bitrate=N/A speed=19.3x    frame=17458 fps=464 q=-0.0 size=N/A time=00:12:08.14 bitrate=N/A speed=19.3x    frame=17723 fps=464 q=-0.0 size=N/A time=00:12:19.19 bitrate=N/A speed=19.4x    frame=17987 fps=465 q=-0.0 size=N/A time=00:12:30.20 bitrate=N/A speed=19.4x    frame=18173 fps=464 q=-0.0 size=N/A time=00:12:37.96 bitrate=N/A speed=19.3x    frame=18439 fps=464 q=-0.0 size=N/A time=00:12:49.05 bitrate=N/A speed=19.4x    frame=18686 fps=464 q=-0.0 size=N/A time=00:12:59.36 bitrate=N/A speed=19.4x    frame=18933 fps=465 q=-0.0 size=N/A time=00:13:09.66 bitrate=N/A speed=19.4x    frame=19176 fps=465 q=-0.0 size=N/A time=00:13:19.79 bitrate=N/A speed=19.4x    frame=19395 fps=464 q=-0.0 size=N/A time=00:13:28.93 bitrate=N/A speed=19.4x    frame=19626 fps=464 q=-0.0 size=N/A time=00:13:38.56 bitrate=N/A speed=19.3x    frame=19828 fps=463 q=-0.0 size=N/A time=00:13:46.99 bitrate=N/A speed=19.3x    frame=20074 fps=463 q=-0.0 size=N/A time=00:13:57.25 bitrate=N/A speed=19.3x    frame=20333 fps=464 q=-0.0 size=N/A time=00:14:08.05 bitrate=N/A speed=19.3x    frame=20578 fps=464 q=-0.0 size=N/A time=00:14:18.27 bitrate=N/A speed=19.3x    frame=20826 fps=464 q=-0.0 size=N/A time=00:14:28.61 bitrate=N/A speed=19.4x    frame=21052 fps=464 q=-0.0 size=N/A time=00:14:38.04 bitrate=N/A speed=19.3x    frame=21316 fps=464 q=-0.0 size=N/A time=00:14:49.05 bitrate=N/A speed=19.4x    frame=21560 fps=464 q=-0.0 size=N/A time=00:14:59.23 bitrate=N/A speed=19.4x    frame=21808 fps=465 q=-0.0 size=N/A time=00:15:09.57 bitrate=N/A speed=19.4x    frame=22043 fps=464 q=-0.0 size=N/A time=00:15:19.37 bitrate=N/A speed=19.4x    frame=22283 fps=465 q=-0.0 size=N/A time=00:15:29.38 bitrate=N/A speed=19.4x    frame=22514 fps=464 q=-0.0 size=N/A time=00:15:39.02 bitrate=N/A speed=19.4x    frame=22777 fps=465 q=-0.0 size=N/A time=00:15:49.99 bitrate=N/A speed=19.4x    frame=22971 fps=464 q=-0.0 size=N/A time=00:15:58.08 bitrate=N/A speed=19.3x    frame=23224 fps=464 q=-0.0 size=N/A time=00:16:08.63 bitrate=N/A speed=19.4x    frame=23480 fps=465 q=-0.0 size=N/A time=00:16:19.31 bitrate=N/A speed=19.4x    frame=23728 fps=465 q=-0.0 size=N/A time=00:16:29.65 bitrate=N/A speed=19.4x    frame=23974 fps=465 q=-0.0 size=N/A time=00:16:39.91 bitrate=N/A speed=19.4x    frame=24250 fps=465 q=-0.0 size=N/A time=00:16:51.42 bitrate=N/A speed=19.4x    frame=24493 fps=466 q=-0.0 size=N/A time=00:17:01.56 bitrate=N/A speed=19.4x    frame=24744 fps=466 q=-0.0 size=N/A time=00:17:12.03 bitrate=N/A speed=19.4x    frame=24975 fps=466 q=-0.0 size=N/A time=00:17:21.66 bitrate=N/A speed=19.4x    frame=25226 fps=466 q=-0.0 size=N/A time=00:17:32.13 bitrate=N/A speed=19.4x    frame=25465 fps=466 q=-0.0 size=N/A time=00:17:42.10 bitrate=N/A speed=19.4x    frame=25674 fps=465 q=-0.0 size=N/A time=00:17:50.81 bitrate=N/A speed=19.4x    frame=25911 fps=465 q=-0.0 size=N/A time=00:18:00.70 bitrate=N/A speed=19.4x    frame=26153 fps=465 q=-0.0 size=N/A time=00:18:10.79 bitrate=N/A speed=19.4x    frame=26420 fps=466 q=-0.0 size=N/A time=00:18:21.93 bitrate=N/A speed=19.4x    frame=26655 fps=466 q=-0.0 size=N/A time=00:18:31.73 bitrate=N/A speed=19.4x    frame=26911 fps=466 q=-0.0 size=N/A time=00:18:42.41 bitrate=N/A speed=19.4x    frame=27175 fps=466 q=-0.0 size=N/A time=00:18:53.42 bitrate=N/A speed=19.4x    frame=27418 fps=466 q=-0.0 size=N/A time=00:19:03.55 bitrate=N/A speed=19.4x    frame=27675 fps=467 q=-0.0 size=N/A time=00:19:14.31 bitrate=N/A speed=19.5x    frame=27929 fps=467 q=-0.0 size=N/A time=00:19:24.87 bitrate=N/A speed=19.5x    frame=28172 fps=467 q=-0.0 size=N/A time=00:19:35.00 bitrate=N/A speed=19.5x    frame=28433 fps=467 q=-0.0 size=N/A time=00:19:45.89 bitrate=N/A speed=19.5x    frame=28703 fps=468 q=-0.0 size=N/A time=00:19:57.15 bitrate=N/A speed=19.5x    frame=28976 fps=468 q=-0.0 size=N/A time=00:20:08.54 bitrate=N/A speed=19.5x    frame=29258 fps=469 q=-0.0 size=N/A time=00:20:20.30 bitrate=N/A speed=19.6x    frame=29536 fps=469 q=-0.0 size=N/A time=00:20:31.89 bitrate=N/A speed=19.6x    frame=29817 fps=470 q=-0.0 size=N/A time=00:20:43.61 bitrate=N/A speed=19.6x    frame=30105 fps=471 q=-0.0 size=N/A time=00:20:55.62 bitrate=N/A speed=19.6x    frame=30363 fps=471 q=-0.0 size=N/A time=00:21:06.39 bitrate=N/A speed=19.6x    frame=30627 fps=471 q=-0.0 size=N/A time=00:21:17.40 bitrate=N/A speed=19.7x    frame=30862 fps=471 q=-0.0 size=N/A time=00:21:27.20 bitrate=N/A speed=19.7x    frame=31131 fps=472 q=-0.0 size=N/A time=00:21:38.42 bitrate=N/A speed=19.7x    frame=31394 fps=472 q=-0.0 size=N/A time=00:21:49.39 bitrate=N/A speed=19.7x    frame=31645 fps=472 q=-0.0 size=N/A time=00:21:59.86 bitrate=N/A speed=19.7x    frame=31861 fps=471 q=-0.0 size=N/A time=00:22:08.86 bitrate=N/A speed=19.7x    frame=32091 fps=471 q=-0.0 size=N/A time=00:22:18.46 bitrate=N/A speed=19.7x    frame=32219 fps=470 q=-0.0 size=N/A time=00:22:23.80 bitrate=N/A speed=19.6x    frame=32403 fps=469 q=-0.0 size=N/A time=00:22:31.47 bitrate=N/A speed=19.6x    frame=32595 fps=468 q=-0.0 size=N/A time=00:22:39.48 bitrate=N/A speed=19.5x    frame=32751 fps=467 q=-0.0 size=N/A time=00:22:45.98 bitrate=N/A speed=19.5x    frame=32917 fps=466 q=-0.0 size=N/A time=00:22:52.91 bitrate=N/A speed=19.4x    frame=33086 fps=465 q=-0.0 size=N/A time=00:22:59.96 bitrate=N/A speed=19.4x    frame=33247 fps=464 q=-0.0 size=N/A time=00:23:06.67 bitrate=N/A speed=19.3x    frame=33440 fps=463 q=-0.0 size=N/A time=00:23:14.72 bitrate=N/A speed=19.3x    frame=33630 fps=462 q=-0.0 size=N/A time=00:23:22.65 bitrate=N/A speed=19.3x    frame=33805 fps=461 q=-0.0 size=N/A time=00:23:29.95 bitrate=N/A speed=19.2x    frame=33987 fps=461 q=-0.0 size=N/A time=00:23:37.54 bitrate=N/A speed=19.2x    frame=34178 fps=460 q=-0.0 size=N/A time=00:23:45.50 bitrate=N/A speed=19.2x    [Parsed_psnr_10 @ 000001e0f3fac280] PSNR y:47.828223 u:51.532083 v:51.677240 average:48.762725 min:40.953632 max:inf
[out#0/null @ 000001e0e6e7f080] video:14697KiB audio:267692KiB subtitle:0KiB other streams:0KiB global headers:0KiB muxing overhead: unknown
frame=34203 fps=460 q=-0.0 Lsize=N/A time=00:23:46.55 bitrate=N/A speed=19.2x    
